<svg width="132" height="70" viewBox="0 0 132 70" fill="none" xmlns="http://www.w3.org/2000/svg">
<rect width="132" height="70" rx="35" fill="#8A6677"/>
<rect x="7" y="8" width="117" height="54" rx="27" fill="#734B5E"/>
<circle cx="96" cy="36" r="22" fill="#5D2E44"/>
<path d="M83.4251 49.8818L82.9627 49.6914C82.6864 50.3624 81.9421 50.6735 81.2973 50.401L81.2958 50.4004C80.6476 50.1288 80.3267 49.3664 80.5948 48.6907C81.8484 45.5563 87.6138 36.9994 101.332 36.9994C102.106 36.9994 102.721 36.3587 102.721 35.5933C102.721 34.8278 102.106 34.1871 101.332 34.1871C94.4388 34.1871 89.425 36.1431 85.8369 38.5649C85.833 38.4808 85.8308 38.3967 85.8308 38.3117C85.8308 32.5756 90.3941 27.9381 95.9985 27.9381H100.443C104.156 27.9381 107.401 25.9295 109.207 22.7284L109.209 22.726C109.306 22.5516 109.448 22.4958 109.561 22.5002C109.673 22.5046 109.806 22.5684 109.887 22.7519L109.887 22.7519C110.912 25.0853 111.5 27.9611 111.5 30.7398C111.5 40.3131 105.497 48.0028 97.1006 48.6243L97.0921 48.6249L97.0836 48.6258C92.8081 49.0891 89.5464 46.8351 87.8249 44.4576L87.5073 44.0189L87.0953 44.3705C84.1819 46.8569 83.0645 49.4424 82.9622 49.6926L83.4251 49.8818ZM83.4251 49.8818C83.5046 49.6872 84.4899 47.3933 87.0427 45.0823L85.8827 39.1393C89.4054 36.6986 94.3898 34.6871 101.332 34.6871C101.821 34.6871 102.221 35.0949 102.221 35.5933C102.221 36.0916 101.821 36.4994 101.332 36.4994C87.3643 36.4994 81.4415 45.2265 80.1303 48.5056C79.7636 49.4287 80.197 50.4821 81.1026 50.8615C82.0138 51.2466 83.0472 50.7992 83.4251 49.8818Z" fill="#F6BEE6" stroke="#734B5E"/>
</svg>
