<svg width="56" height="49" viewBox="0 0 56 49" fill="none" xmlns="http://www.w3.org/2000/svg">
<path d="M55.7376 24.5955C55.7373 24.9449 55.6355 25.2865 55.4449 25.5779C55.2543 25.8692 54.9833 26.0976 54.6655 26.2345L3.89039 48.245C3.44315 48.4387 2.95173 48.5039 2.47024 48.4334C1.98875 48.3629 1.53584 48.1594 1.16136 47.8453C0.786885 47.5312 0.50536 47.1187 0.347767 46.6532C0.190176 46.1877 0.162631 45.6872 0.26816 45.2068L4.79933 24.5987L0.270712 3.9912C0.164376 3.51037 0.191448 3.00916 0.34894 2.54287C0.506433 2.07658 0.788226 1.66335 1.16322 1.34876C1.53822 1.03418 1.99185 0.830471 2.47404 0.760122C2.95624 0.689775 3.44826 0.755521 3.89581 0.950104L54.6632 22.9592C54.981 23.096 55.252 23.3244 55.4425 23.6157C55.6331 23.9071 55.7348 24.2487 55.7351 24.598L55.7376 24.5955ZM8.01527 26.3787L4.0826 44.2787L45.3813 26.3763L8.01527 26.3787ZM45.3815 22.811L4.08504 4.91381L8.02048 22.8133L45.3815 22.811Z" fill="white"/>
</svg>
