 <svg class="toggle"
          xmlns="http://www.w3.org/2000/svg"
          width="132"
          height="70"
          viewBox="0 0 132 70"
          fill="none"
        >
          <rect
            width="132"
            height="70"
            rx="35"
            fill="#243851"
            fill-opacity="0.64"
          />
          <rect
            x="7"
            y="8"
            width="117"
            height="54"
            rx="27"
            fill="#1E2F45"
            fill-opacity="0.64"
          />
          <circle cx="35" cy="36" r="22" fill="#1E1E1E" />
          <path
            d="M31.8002 18.6067C32.0085 18.8661 32.136 19.1837 32.1665 19.5183C32.1969 19.8529 32.1288 20.1891 31.9709 20.4836C30.7375 22.8057 30.0934 25.4085 30.0978 28.0527C30.0978 36.849 37.091 43.9718 45.7098 43.9718C46.8341 43.9718 47.9285 43.8515 48.9802 43.6218C49.3027 43.5502 49.6385 43.5776 49.9458 43.7005C50.2531 43.8234 50.5183 44.0365 50.7083 44.3131C50.9088 44.6006 51.011 44.9481 50.9991 45.3013C50.9871 45.6546 50.8616 45.994 50.6421 46.2666C48.9689 48.3742 46.8581 50.0723 44.4635 51.2372C42.069 52.4021 39.4512 53.0043 36.8008 53C26.966 53 19 44.8753 19 34.8648C19 27.3308 23.5099 20.8686 29.9314 18.1298C30.2513 17.9911 30.6064 17.9627 30.9434 18.0487C31.2803 18.1347 31.581 18.3305 31.8002 18.6067Z"
            fill="#4F5F76"
          />
          <path
            d="M29.5978 28.0531C29.598 37.1163 36.806 44.4718 45.7098 44.4718C46.8698 44.4718 48 44.3476 49.0869 44.1103L49.0886 44.1099C49.3126 44.0602 49.5459 44.0791 49.7601 44.1647C49.9744 44.2505 50.1613 44.3998 50.2961 44.5961L50.2981 44.599C50.4363 44.7972 50.5077 45.0382 50.4993 45.2844C50.491 45.5307 50.4035 45.7656 50.2527 45.953L50.2505 45.9557C48.6233 48.0053 46.5713 49.6558 44.2448 50.7876C41.9184 51.9193 39.3755 52.5042 36.8017 52.5H36.8008C27.251 52.5 19.5 44.6081 19.5 34.8648C19.5 27.5339 23.8878 21.2511 30.1275 18.5897L30.1276 18.5897L30.1302 18.5885C30.3487 18.4939 30.5904 18.4746 30.8197 18.5332C31.0492 18.5917 31.2563 18.7257 31.4086 18.9175L31.4086 18.9175L31.4103 18.9196C31.5563 19.1016 31.6469 19.3258 31.6685 19.5636C31.6901 19.8013 31.6416 20.0396 31.5302 20.2474L31.5293 20.2491C30.2573 22.6439 29.5933 25.3275 29.5978 28.0531ZM29.5978 28.0531C29.5978 28.053 29.5978 28.0528 29.5978 28.0527H30.0978L29.5978 28.0535C29.5978 28.0534 29.5978 28.0532 29.5978 28.0531Z"
            stroke="#1E2F45"
            stroke-opacity="0.64"
          />
        </svg>